<?xml version="1.0" encoding="UTF-8"?>
<svg xmlns="http://www.w3.org/2000/svg" xmlns:xlink="http://www.w3.org/1999/xlink" width="250px" height="105px" viewBox="0 0 249 105" version="1.1">
<defs>
<filter id="alpha" filterUnits="objectBoundingBox" x="0%" y="0%" width="100%" height="100%">
  <feColorMatrix type="matrix" in="SourceGraphic" values="0 0 0 0 1 0 0 0 0 1 0 0 0 0 1 0 0 0 1 0"/>
</filter>
<mask id="mask0">
  <g filter="url(#alpha)">
<rect x="0" y="0" width="249" height="105" style="fill:rgb(0%,0%,0%);fill-opacity:0.984314;stroke:none;"/>
  </g>
</mask>
<clipPath id="clip1">
  <rect x="0" y="0" width="250" height="105"/>
</clipPath>
<g id="surface5" clip-path="url(#clip1)">
<path style=" stroke:none;fill-rule:evenodd;fill:rgb(5.882353%,35.294118%,16.862745%);fill-opacity:1;" d="M 185.25 33.253906 C 186.105469 33.253906 186.964844 33.253906 187.824219 33.253906 C 187.824219 34.167969 187.824219 35.085938 187.824219 36.003906 C 186.964844 36.003906 186.105469 36.003906 185.25 36.003906 C 185.25 35.085938 185.25 34.167969 185.25 33.253906 Z M 185.25 33.253906 "/>
</g>
<mask id="mask1">
  <g filter="url(#alpha)">
<rect x="0" y="0" width="249" height="105" style="fill:rgb(0%,0%,0%);fill-opacity:0.992157;stroke:none;"/>
  </g>
</mask>
<clipPath id="clip2">
  <rect x="0" y="0" width="250" height="105"/>
</clipPath>
<g id="surface8" clip-path="url(#clip2)">
<path style=" stroke:none;fill-rule:evenodd;fill:rgb(5.882353%,34.901961%,17.254902%);fill-opacity:1;" d="M 131.707031 33.769531 C 132.679688 33.769531 133.652344 33.769531 134.625 33.769531 C 134.625 37.949219 134.625 42.132812 134.625 46.3125 C 135.933594 46.222656 137.25 46.222656 138.570312 46.3125 C 138.570312 43.90625 138.570312 41.5 138.570312 39.097656 C 139.542969 39.097656 140.515625 39.097656 141.488281 39.097656 C 141.488281 41.5 141.488281 43.90625 141.488281 46.3125 C 142.640625 46.523438 143.46875 46.125 143.976562 45.109375 C 144.222656 43.117188 144.308594 41.113281 144.234375 39.097656 C 145.195312 39.042969 146.136719 39.101562 147.066406 39.269531 C 147.226562 41.433594 147.140625 43.582031 146.808594 45.710938 C 147.015625 46.011719 147.304688 46.183594 147.667969 46.226562 C 148.296875 46.34375 148.925781 46.34375 149.554688 46.226562 C 149.773438 43.621094 149.714844 41.015625 149.382812 38.410156 C 149.417969 38.308594 149.476562 38.222656 149.554688 38.152344 C 150.351562 38.066406 151.152344 38.035156 151.957031 38.066406 C 152.371094 40.738281 152.570312 43.429688 152.558594 46.140625 C 153.652344 46.164062 154.769531 46.222656 155.902344 46.3125 C 155.902344 42.132812 155.902344 37.949219 155.902344 33.769531 C 156.875 33.769531 157.847656 33.769531 158.820312 33.769531 C 158.820312 38.808594 158.820312 43.851562 158.820312 48.890625 C 154.988281 48.917969 151.15625 48.890625 147.324219 48.804688 C 146.710938 48.679688 146.167969 48.421875 145.691406 48.03125 C 145.269531 48.402344 144.785156 48.660156 144.234375 48.804688 C 137.199219 48.890625 130.164062 48.917969 123.128906 48.890625 C 123.128906 48.03125 123.128906 47.171875 123.128906 46.3125 C 124.042969 46.3125 124.957031 46.3125 125.871094 46.3125 C 125.871094 43.105469 125.871094 39.898438 125.871094 36.691406 C 126.84375 36.691406 127.816406 36.691406 128.789062 36.691406 C 128.789062 39.898438 128.789062 43.105469 128.789062 46.3125 C 129.761719 46.3125 130.734375 46.3125 131.707031 46.3125 C 131.707031 42.132812 131.707031 37.949219 131.707031 33.769531 Z M 131.707031 33.769531 "/>
</g>
<mask id="mask2">
  <g filter="url(#alpha)">
<rect x="0" y="0" width="249" height="105" style="fill:rgb(0%,0%,0%);fill-opacity:0.976471;stroke:none;"/>
  </g>
</mask>
<clipPath id="clip3">
  <rect x="0" y="0" width="250" height="105"/>
</clipPath>
<g id="surface11" clip-path="url(#clip3)">
<path style=" stroke:none;fill-rule:evenodd;fill:rgb(5.490196%,34.901961%,17.254902%);fill-opacity:1;" d="M 161.222656 33.769531 C 162.195312 33.769531 163.167969 33.769531 164.140625 33.769531 C 164.140625 38.808594 164.140625 43.851562 164.140625 48.890625 C 163.167969 48.890625 162.195312 48.890625 161.222656 48.890625 C 161.222656 43.851562 161.222656 38.808594 161.222656 33.769531 Z M 161.222656 33.769531 "/>
</g>
<mask id="mask3">
  <g filter="url(#alpha)">
<rect x="0" y="0" width="249" height="105" style="fill:rgb(0%,0%,0%);fill-opacity:0.992157;stroke:none;"/>
  </g>
</mask>
<clipPath id="clip4">
  <rect x="0" y="0" width="250" height="105"/>
</clipPath>
<g id="surface14" clip-path="url(#clip4)">
<path style=" stroke:none;fill-rule:evenodd;fill:rgb(5.882353%,34.901961%,16.862745%);fill-opacity:1;" d="M 200.691406 37.550781 C 204.042969 37.320312 206.1875 38.808594 207.128906 42.015625 C 207.402344 43.4375 207.546875 44.867188 207.558594 46.3125 C 209.039062 46.214844 210.523438 46.214844 212.019531 46.3125 C 211.652344 43.6875 211.851562 41.109375 212.621094 38.582031 C 214.777344 37.859375 216.976562 37.714844 219.226562 38.152344 C 221.253906 38.792969 222.253906 40.199219 222.230469 42.359375 C 222.316406 44.535156 222.34375 46.714844 222.316406 48.890625 C 214.078125 48.890625 205.839844 48.890625 197.605469 48.890625 C 197.605469 48.03125 197.605469 47.171875 197.605469 46.3125 C 199.949219 46.3125 202.292969 46.3125 204.640625 46.3125 C 204.820312 44.515625 204.445312 42.855469 203.523438 41.328125 C 203.085938 40.945312 202.597656 40.632812 202.066406 40.382812 C 201.035156 40.328125 200.007812 40.269531 198.976562 40.210938 C 198.777344 39.457031 198.660156 38.683594 198.632812 37.894531 C 199.355469 37.855469 200.042969 37.742188 200.691406 37.550781 Z M 216.308594 40.46875 C 217.25 40.46875 218.078125 40.753906 218.796875 41.328125 C 218.914062 41.558594 219.027344 41.789062 219.140625 42.015625 C 219.226562 43.390625 219.253906 44.765625 219.226562 46.140625 C 217.796875 46.140625 216.367188 46.140625 214.9375 46.140625 C 214.800781 45.257812 214.6875 44.371094 214.59375 43.476562 C 214.699219 42.53125 214.8125 41.585938 214.9375 40.640625 C 215.433594 40.695312 215.886719 40.636719 216.308594 40.46875 Z M 216.308594 40.46875 "/>
</g>
<mask id="mask4">
  <g filter="url(#alpha)">
<rect x="0" y="0" width="249" height="105" style="fill:rgb(0%,0%,0%);fill-opacity:0.988235;stroke:none;"/>
  </g>
</mask>
<clipPath id="clip5">
  <rect x="0" y="0" width="250" height="105"/>
</clipPath>
<g id="surface17" clip-path="url(#clip5)">
<path style=" stroke:none;fill-rule:evenodd;fill:rgb(5.490196%,34.901961%,16.862745%);fill-opacity:1;" d="M 115.0625 37.894531 C 116.503906 37.835938 117.933594 37.921875 119.351562 38.152344 C 121.078125 38.601562 122.023438 39.71875 122.183594 41.5 C 122.269531 43.964844 122.296875 46.425781 122.269531 48.890625 C 119.695312 48.863281 117.121094 48.890625 114.546875 48.976562 C 113.308594 49.535156 112.738281 50.507812 112.832031 51.898438 C 112.949219 53.242188 113.179688 54.558594 113.515625 55.851562 C 112.660156 55.9375 111.804688 55.964844 110.941406 55.9375 C 110.742188 54.621094 110.542969 53.304688 110.34375 51.984375 C 110.082031 50.464844 110.308594 49.035156 111.027344 47.6875 C 111.472656 47.304688 111.84375 46.875 112.144531 46.398438 C 111.65625 44.003906 111.742188 41.625 112.402344 39.269531 C 112.449219 38.953125 112.589844 38.695312 112.832031 38.496094 C 113.589844 38.261719 114.332031 38.0625 115.0625 37.894531 Z M 116.261719 40.46875 C 117.15625 40.488281 117.984375 40.71875 118.75 41.15625 C 118.96875 41.539062 119.140625 41.941406 119.265625 42.359375 C 119.351562 43.621094 119.378906 44.878906 119.351562 46.140625 C 117.878906 46.195312 116.421875 46.136719 114.976562 45.96875 C 114.640625 44.253906 114.640625 42.535156 114.976562 40.8125 C 115.421875 40.707031 115.851562 40.59375 116.261719 40.46875 Z M 116.261719 40.46875 "/>
</g>
<mask id="mask5">
  <g filter="url(#alpha)">
<rect x="0" y="0" width="249" height="105" style="fill:rgb(0%,0%,0%);fill-opacity:0.996078;stroke:none;"/>
  </g>
</mask>
<clipPath id="clip6">
  <rect x="0" y="0" width="250" height="105"/>
</clipPath>
<g id="surface20" clip-path="url(#clip6)">
<path style=" stroke:none;fill-rule:evenodd;fill:rgb(5.882353%,34.901961%,17.254902%);fill-opacity:1;" d="M 173.40625 37.894531 C 175.296875 37.863281 177.183594 37.894531 179.070312 37.980469 C 179.628906 38.015625 180.171875 38.101562 180.699219 38.238281 C 180.785156 40.929688 180.816406 43.621094 180.785156 46.3125 C 182.253906 46.269531 183.710938 46.214844 185.164062 46.140625 C 185.25 43.449219 185.277344 40.757812 185.25 38.066406 C 186.164062 38.066406 187.078125 38.066406 187.996094 38.066406 C 187.964844 40.757812 187.996094 43.449219 188.078125 46.140625 C 189.871094 46.089844 191.671875 46.148438 193.484375 46.3125 C 193.484375 43.5625 193.484375 40.8125 193.484375 38.066406 C 194.457031 38.066406 195.429688 38.066406 196.402344 38.066406 C 196.402344 41.671875 196.402344 45.28125 196.402344 48.890625 C 188.910156 48.917969 181.417969 48.890625 173.921875 48.804688 C 171.855469 48.847656 170.507812 47.902344 169.890625 45.96875 C 169.625 44.433594 169.566406 42.886719 169.71875 41.328125 C 170.105469 39.25 171.335938 38.105469 173.40625 37.894531 Z M 174.09375 40.640625 C 175.296875 40.640625 176.496094 40.640625 177.699219 40.640625 C 177.699219 42.476562 177.699219 44.308594 177.699219 46.140625 C 176.554688 46.171875 175.410156 46.140625 174.265625 46.054688 C 173.378906 45.855469 172.835938 45.3125 172.636719 44.421875 C 172.453125 43.351562 172.570312 42.324219 172.980469 41.328125 C 173.324219 41.03125 173.695312 40.800781 174.09375 40.640625 Z M 174.09375 40.640625 "/>
</g>
<mask id="mask6">
  <g filter="url(#alpha)">
<rect x="0" y="0" width="249" height="105" style="fill:rgb(0%,0%,0%);fill-opacity:0.203922;stroke:none;"/>
  </g>
</mask>
<clipPath id="clip7">
  <rect x="0" y="0" width="250" height="105"/>
</clipPath>
<g id="surface23" clip-path="url(#clip7)">
<path style=" stroke:none;fill-rule:evenodd;fill:rgb(64.705882%,75.294118%,68.627451%);fill-opacity:1;" d="M 59.976562 46.3125 C 59.988281 46.21875 60.042969 46.164062 60.148438 46.140625 C 60.316406 46.820312 60.375 47.507812 60.320312 48.203125 C 60.203125 47.574219 60.089844 46.945312 59.976562 46.3125 Z M 59.976562 46.3125 "/>
</g>
<mask id="mask7">
  <g filter="url(#alpha)">
<rect x="0" y="0" width="249" height="105" style="fill:rgb(0%,0%,0%);fill-opacity:0.937255;stroke:none;"/>
  </g>
</mask>
<clipPath id="clip8">
  <rect x="0" y="0" width="250" height="105"/>
</clipPath>
<g id="surface26" clip-path="url(#clip8)">
<path style=" stroke:none;fill-rule:evenodd;fill:rgb(6.27451%,32.941176%,16.078431%);fill-opacity:1;" d="M 192.285156 50.609375 C 192.972656 50.609375 193.65625 50.609375 194.34375 50.609375 C 194.34375 51.527344 194.34375 52.441406 194.34375 53.359375 C 193.609375 53.410156 192.898438 53.351562 192.199219 53.1875 C 192.066406 52.3125 192.09375 51.453125 192.285156 50.609375 Z M 192.285156 50.609375 "/>
</g>
<mask id="mask8">
  <g filter="url(#alpha)">
<rect x="0" y="0" width="249" height="105" style="fill:rgb(0%,0%,0%);fill-opacity:0.937255;stroke:none;"/>
  </g>
</mask>
<clipPath id="clip9">
  <rect x="0" y="0" width="250" height="105"/>
</clipPath>
<g id="surface29" clip-path="url(#clip9)">
<path style=" stroke:none;fill-rule:evenodd;fill:rgb(5.490196%,34.901961%,17.254902%);fill-opacity:1;" d="M 195.542969 50.609375 C 196.230469 50.609375 196.917969 50.609375 197.605469 50.609375 C 197.605469 51.527344 197.605469 52.441406 197.605469 53.359375 C 196.917969 53.359375 196.230469 53.359375 195.542969 53.359375 C 195.542969 52.441406 195.542969 51.527344 195.542969 50.609375 Z M 195.542969 50.609375 "/>
</g>
<mask id="mask9">
  <g filter="url(#alpha)">
<rect x="0" y="0" width="249" height="105" style="fill:rgb(0%,0%,0%);fill-opacity:0.533333;stroke:none;"/>
  </g>
</mask>
<clipPath id="clip10">
  <rect x="0" y="0" width="250" height="105"/>
</clipPath>
<g id="surface32" clip-path="url(#clip10)">
<path style=" stroke:none;fill-rule:evenodd;fill:rgb(32.156863%,52.156863%,39.607843%);fill-opacity:1;" d="M 45.046875 48.546875 C 45.046875 49.519531 45.046875 50.496094 45.046875 51.46875 C 47.765625 51.414062 50.453125 51.46875 53.113281 51.640625 C 50.367188 51.640625 47.621094 51.640625 44.875 51.640625 C 44.820312 50.578125 44.875 49.546875 45.046875 48.546875 Z M 45.046875 48.546875 "/>
</g>
<mask id="mask10">
  <g filter="url(#alpha)">
<rect x="0" y="0" width="249" height="105" style="fill:rgb(0%,0%,0%);fill-opacity:0.329412;stroke:none;"/>
  </g>
</mask>
<clipPath id="clip11">
  <rect x="0" y="0" width="250" height="105"/>
</clipPath>
<g id="surface35" clip-path="url(#clip11)">
<path style=" stroke:none;fill-rule:evenodd;fill:rgb(31.764706%,32.156863%,31.764706%);fill-opacity:1;" d="M 203.09375 51.984375 C 203.324219 52.097656 203.324219 52.097656 203.09375 51.984375 Z M 203.09375 51.984375 "/>
</g>
<mask id="mask11">
  <g filter="url(#alpha)">
<rect x="0" y="0" width="249" height="105" style="fill:rgb(0%,0%,0%);fill-opacity:0.0313725;stroke:none;"/>
  </g>
</mask>
<clipPath id="clip12">
  <rect x="0" y="0" width="250" height="105"/>
</clipPath>
<g id="surface38" clip-path="url(#clip12)">
<path style=" stroke:none;fill-rule:evenodd;fill:rgb(37.254902%,37.647059%,37.254902%);fill-opacity:1;" d="M 126.558594 53.015625 C 126.445312 52.785156 126.445312 52.785156 126.558594 53.015625 Z M 126.558594 53.015625 "/>
</g>
<mask id="mask12">
  <g filter="url(#alpha)">
<rect x="0" y="0" width="249" height="105" style="fill:rgb(0%,0%,0%);fill-opacity:0.988235;stroke:none;"/>
  </g>
</mask>
<clipPath id="clip13">
  <rect x="0" y="0" width="250" height="105"/>
</clipPath>
<g id="surface41" clip-path="url(#clip13)">
<path style=" stroke:none;fill-rule:evenodd;fill:rgb(32.941176%,32.941176%,32.941176%);fill-opacity:1;" d="M 158.132812 58.34375 C 158.332031 58.414062 158.503906 58.527344 158.648438 58.6875 C 160.5 62.25 162.214844 65.859375 163.796875 69.511719 C 163.046875 69.570312 162.300781 69.511719 161.566406 69.339844 C 160.460938 67.070312 159.316406 64.835938 158.132812 62.640625 C 157.011719 64.921875 155.867188 67.183594 154.703125 69.425781 C 154.019531 69.511719 153.332031 69.542969 152.644531 69.511719 C 154.277344 65.6875 156.109375 61.964844 158.132812 58.34375 Z M 158.132812 58.34375 "/>
</g>
<mask id="mask13">
  <g filter="url(#alpha)">
<rect x="0" y="0" width="249" height="105" style="fill:rgb(0%,0%,0%);fill-opacity:0.988235;stroke:none;"/>
  </g>
</mask>
<clipPath id="clip14">
  <rect x="0" y="0" width="250" height="105"/>
</clipPath>
<g id="surface44" clip-path="url(#clip14)">
<path style=" stroke:none;fill-rule:evenodd;fill:rgb(32.941176%,32.941176%,32.941176%);fill-opacity:1;" d="M 215.449219 58.34375 C 215.894531 58.472656 216.210938 58.757812 216.394531 59.203125 C 218.074219 62.625 219.707031 66.0625 221.285156 69.511719 C 220.496094 69.566406 219.722656 69.507812 218.96875 69.339844 C 217.945312 67.058594 216.828125 64.824219 215.621094 62.640625 C 214.449219 64.757812 213.390625 66.933594 212.449219 69.167969 C 212.363281 69.253906 212.277344 69.339844 212.191406 69.425781 C 211.503906 69.511719 210.820312 69.542969 210.132812 69.511719 C 211.761719 65.726562 213.535156 62.003906 215.449219 58.34375 Z M 215.449219 58.34375 "/>
</g>
<mask id="mask14">
  <g filter="url(#alpha)">
<rect x="0" y="0" width="249" height="105" style="fill:rgb(0%,0%,0%);fill-opacity:0.992157;stroke:none;"/>
  </g>
</mask>
<clipPath id="clip15">
  <rect x="0" y="0" width="250" height="105"/>
</clipPath>
<g id="surface47" clip-path="url(#clip15)">
<path style=" stroke:none;fill-rule:evenodd;fill:rgb(32.941176%,32.941176%,32.941176%);fill-opacity:1;" d="M 100.988281 58.515625 C 101.171875 58.488281 101.34375 58.519531 101.503906 58.601562 C 103.015625 60.429688 104.617188 62.175781 106.308594 63.84375 C 107.929688 62.117188 109.53125 60.371094 111.113281 58.601562 C 111.277344 58.519531 111.449219 58.488281 111.628906 58.515625 C 111.628906 62.179688 111.628906 65.847656 111.628906 69.511719 C 110.941406 69.511719 110.257812 69.511719 109.570312 69.511719 C 109.652344 67.539062 109.566406 65.589844 109.3125 63.671875 C 108.265625 64.699219 107.265625 65.730469 106.308594 66.761719 C 105.988281 66.699219 105.730469 66.527344 105.539062 66.246094 C 104.738281 65.332031 103.9375 64.414062 103.136719 63.5 C 103.078125 65.445312 103.019531 67.394531 102.964844 69.339844 C 102.277344 69.570312 101.589844 69.570312 100.902344 69.339844 C 100.765625 65.726562 100.792969 62.117188 100.988281 58.515625 Z M 100.988281 58.515625 "/>
</g>
<mask id="mask15">
  <g filter="url(#alpha)">
<rect x="0" y="0" width="249" height="105" style="fill:rgb(0%,0%,0%);fill-opacity:0.992157;stroke:none;"/>
  </g>
</mask>
<clipPath id="clip16">
  <rect x="0" y="0" width="250" height="105"/>
</clipPath>
<g id="surface50" clip-path="url(#clip16)">
<path style=" stroke:none;fill-rule:evenodd;fill:rgb(32.941176%,32.941176%,32.941176%);fill-opacity:1;" d="M 118.492188 58.34375 C 118.714844 58.480469 118.917969 58.652344 119.09375 58.859375 C 120.921875 62.347656 122.609375 65.898438 124.15625 69.511719 C 123.40625 69.570312 122.660156 69.511719 121.925781 69.339844 C 120.808594 67.105469 119.695312 64.875 118.578125 62.640625 C 117.40625 64.761719 116.316406 66.9375 115.320312 69.167969 C 115.234375 69.253906 115.148438 69.339844 115.0625 69.425781 C 114.378906 69.511719 113.691406 69.542969 113.003906 69.511719 C 114.636719 65.683594 116.46875 61.960938 118.492188 58.34375 Z M 118.492188 58.34375 "/>
</g>
<mask id="mask16">
  <g filter="url(#alpha)">
<rect x="0" y="0" width="249" height="105" style="fill:rgb(0%,0%,0%);fill-opacity:0.988235;stroke:none;"/>
  </g>
</mask>
<clipPath id="clip17">
  <rect x="0" y="0" width="250" height="105"/>
</clipPath>
<g id="surface53" clip-path="url(#clip17)">
<path style=" stroke:none;fill-rule:evenodd;fill:rgb(32.54902%,32.54902%,32.54902%);fill-opacity:1;" d="M 142.175781 58.515625 C 142.410156 58.488281 142.640625 58.515625 142.863281 58.601562 C 144.890625 60.773438 146.949219 62.921875 149.039062 65.046875 C 149.152344 62.925781 149.269531 60.804688 149.382812 58.6875 C 150.085938 58.410156 150.742188 58.46875 151.355469 58.859375 C 151.496094 62.417969 151.46875 65.96875 151.269531 69.511719 C 150.980469 69.695312 150.695312 69.667969 150.414062 69.425781 C 148.4375 67.304688 146.433594 65.214844 144.40625 63.15625 C 144.234375 65.269531 144.175781 67.390625 144.234375 69.511719 C 143.503906 69.5625 142.789062 69.507812 142.089844 69.339844 C 141.949219 65.71875 141.976562 62.109375 142.175781 58.515625 Z M 142.175781 58.515625 "/>
</g>
<mask id="mask17">
  <g filter="url(#alpha)">
<rect x="0" y="0" width="249" height="105" style="fill:rgb(0%,0%,0%);fill-opacity:0.988235;stroke:none;"/>
  </g>
</mask>
<clipPath id="clip18">
  <rect x="0" y="0" width="250" height="105"/>
</clipPath>
<g id="surface56" clip-path="url(#clip18)">
<path style=" stroke:none;fill-rule:evenodd;fill:rgb(32.941176%,32.941176%,32.941176%);fill-opacity:1;" d="M 183.1875 58.515625 C 184.757812 58.332031 186.246094 58.589844 187.652344 59.289062 C 188.011719 59.4375 188.242188 59.695312 188.335938 60.0625 C 188.148438 60.609375 187.835938 61.066406 187.394531 61.4375 C 186.15625 60.582031 184.8125 60.324219 183.359375 60.664062 C 182.675781 61.292969 182.675781 61.921875 183.359375 62.554688 C 184.644531 62.941406 185.902344 63.402344 187.136719 63.929688 C 188.960938 65.5625 188.960938 67.226562 187.136719 68.910156 C 184.898438 70.015625 182.726562 69.902344 180.613281 68.566406 C 180.429688 68.441406 180.316406 68.269531 180.273438 68.050781 C 180.511719 67.488281 180.855469 67 181.300781 66.589844 C 182.523438 67.585938 183.894531 67.902344 185.421875 67.535156 C 186.070312 67.183594 186.269531 66.640625 186.019531 65.902344 C 185.933594 65.816406 185.847656 65.730469 185.761719 65.644531 C 184.355469 65.234375 182.980469 64.71875 181.644531 64.101562 C 180.34375 62.605469 180.289062 61.058594 181.472656 59.460938 C 182.035156 59.09375 182.605469 58.777344 183.1875 58.515625 Z M 183.1875 58.515625 "/>
</g>
<mask id="mask18">
  <g filter="url(#alpha)">
<rect x="0" y="0" width="249" height="105" style="fill:rgb(0%,0%,0%);fill-opacity:0.988235;stroke:none;"/>
  </g>
</mask>
<clipPath id="clip19">
  <rect x="0" y="0" width="250" height="105"/>
</clipPath>
<g id="surface59" clip-path="url(#clip19)">
<path style=" stroke:none;fill-rule:evenodd;fill:rgb(32.941176%,32.941176%,32.941176%);fill-opacity:1;" d="M 203.09375 52.15625 C 203.066406 52.929688 203.011719 53.703125 202.925781 54.476562 C 203.304688 54.980469 203.363281 55.523438 203.09375 56.109375 C 203.242188 57.300781 203.472656 58.476562 203.78125 59.632812 C 203.617188 61.535156 203.617188 63.425781 203.78125 65.304688 C 203.863281 65.789062 204.09375 65.84375 204.46875 65.476562 C 204.867188 65.207031 205.066406 64.894531 205.070312 64.53125 C 205.097656 64.902344 205.242188 65.21875 205.496094 65.476562 C 207.402344 66.320312 208.664062 67.726562 209.273438 69.683594 C 205.667969 69.742188 202.0625 69.65625 198.460938 69.425781 C 197.296875 67.175781 196.152344 64.914062 195.03125 62.640625 C 193.820312 64.828125 192.679688 67.0625 191.597656 69.339844 C 190.855469 69.570312 190.109375 69.570312 189.367188 69.339844 C 191.0625 65.773438 192.808594 62.222656 194.601562 58.6875 C 194.71875 58.539062 194.863281 58.425781 195.03125 58.34375 C 196.941406 61.824219 198.769531 65.375 200.519531 68.996094 C 200.652344 69.207031 200.796875 69.207031 200.949219 68.996094 C 201.191406 68.460938 201.476562 67.945312 201.808594 67.449219 C 201.929688 66.414062 201.898438 65.382812 201.722656 64.359375 C 202.113281 62.765625 202.167969 61.164062 201.894531 59.546875 C 202.25 58.488281 202.480469 57.398438 202.582031 56.28125 C 202.753906 54.90625 202.753906 53.558594 202.582031 52.242188 C 202.742188 52.160156 202.914062 52.128906 203.09375 52.15625 Z M 203.09375 52.15625 "/>
</g>
<mask id="mask19">
  <g filter="url(#alpha)">
<rect x="0" y="0" width="249" height="105" style="fill:rgb(0%,0%,0%);fill-opacity:0.992157;stroke:none;"/>
  </g>
</mask>
<clipPath id="clip20">
  <rect x="0" y="0" width="250" height="105"/>
</clipPath>
<g id="surface62" clip-path="url(#clip20)">
<path style=" stroke:none;fill-rule:evenodd;fill:rgb(32.941176%,32.941176%,32.941176%);fill-opacity:1;" d="M 222.660156 58.515625 C 222.839844 58.488281 223.011719 58.519531 223.171875 58.601562 C 224.8125 60.328125 226.414062 62.074219 227.976562 63.84375 C 229.671875 62.175781 231.269531 60.429688 232.785156 58.601562 C 232.980469 58.472656 233.152344 58.5 233.296875 58.6875 C 233.496094 62.230469 233.523438 65.78125 233.382812 69.339844 C 232.683594 69.507812 231.972656 69.5625 231.238281 69.511719 C 231.296875 67.5625 231.238281 65.613281 231.066406 63.671875 C 230.140625 64.398438 229.367188 65.257812 228.75 66.246094 C 228.34375 66.835938 227.886719 66.894531 227.378906 66.417969 C 226.640625 65.367188 225.8125 64.390625 224.890625 63.5 C 224.71875 65.5 224.660156 67.503906 224.71875 69.511719 C 224.03125 69.511719 223.34375 69.511719 222.660156 69.511719 C 222.660156 65.847656 222.660156 62.179688 222.660156 58.515625 Z M 222.660156 58.515625 "/>
</g>
<mask id="mask20">
  <g filter="url(#alpha)">
<rect x="0" y="0" width="249" height="105" style="fill:rgb(0%,0%,0%);fill-opacity:0.976471;stroke:none;"/>
  </g>
</mask>
<clipPath id="clip21">
  <rect x="0" y="0" width="250" height="105"/>
</clipPath>
<g id="surface65" clip-path="url(#clip21)">
<path style=" stroke:none;fill-rule:evenodd;fill:rgb(34.901961%,34.901961%,34.901961%);fill-opacity:1;" d="M 130.847656 61.09375 C 129.964844 60.949219 129.050781 60.863281 128.105469 60.835938 C 127.84375 60.089844 127.726562 59.316406 127.761719 58.515625 C 129.9375 58.347656 131.941406 58.832031 133.765625 59.976562 C 135.945312 62.511719 136.03125 65.117188 134.023438 67.792969 C 132.367188 69.246094 130.621094 69.707031 128.789062 69.167969 C 128.671875 68.835938 128.585938 68.492188 128.53125 68.136719 C 128.488281 68.664062 128.402344 69.179688 128.273438 69.683594 C 127.421875 69.882812 126.566406 69.914062 125.703125 69.769531 C 125.40625 69.273438 125.289062 68.726562 125.359375 68.136719 C 125.53125 68.136719 125.703125 68.136719 125.871094 68.136719 C 125.914062 66.328125 125.859375 64.527344 125.703125 62.726562 C 126.050781 61.21875 126.335938 59.703125 126.558594 58.171875 C 126.09375 57.449219 126.148438 56.761719 126.730469 56.109375 C 126.585938 55.332031 126.644531 54.558594 126.902344 53.789062 C 126.746094 53.546875 126.632812 53.289062 126.558594 53.015625 C 126.953125 53.285156 127.210938 53.171875 127.332031 52.671875 C 127.449219 53.089844 127.363281 53.464844 127.074219 53.789062 C 127.289062 54.164062 127.289062 54.535156 127.074219 54.90625 C 127.1875 55.078125 127.304688 55.25 127.417969 55.421875 C 127.265625 55.601562 127.152344 55.800781 127.074219 56.023438 C 127.644531 56.738281 127.761719 57.542969 127.417969 58.429688 C 127.648438 59.648438 127.765625 60.882812 127.761719 62.125 C 127.933594 62.125 128.105469 62.125 128.273438 62.125 C 127.90625 64.109375 127.847656 66.113281 128.105469 68.136719 C 128.089844 67.324219 128.121094 66.464844 128.191406 65.5625 C 128.53125 65.21875 128.875 64.875 129.21875 64.53125 C 129.347656 63.871094 129.40625 63.242188 129.390625 62.640625 C 129.503906 63.097656 129.621094 63.097656 129.734375 62.640625 C 129.851562 62.859375 129.824219 63.058594 129.648438 63.242188 C 129.734375 63.816406 129.90625 64.359375 130.164062 64.875 C 130.824219 65.289062 131.453125 65.746094 132.050781 66.246094 C 132.289062 66.058594 132.488281 65.828125 132.652344 65.5625 C 133.144531 64.152344 132.941406 62.863281 132.050781 61.695312 C 131.6875 61.410156 131.289062 61.210938 130.847656 61.09375 Z M 130.847656 61.09375 "/>
</g>
<mask id="mask21">
  <g filter="url(#alpha)">
<rect x="0" y="0" width="249" height="105" style="fill:rgb(0%,0%,0%);fill-opacity:0.996078;stroke:none;"/>
  </g>
</mask>
<clipPath id="clip22">
  <rect x="0" y="0" width="250" height="105"/>
</clipPath>
<g id="surface68" clip-path="url(#clip22)">
<path style=" stroke:none;fill-rule:evenodd;fill:rgb(32.941176%,32.941176%,32.941176%);fill-opacity:1;" d="M 137.714844 58.515625 C 138.277344 58.464844 138.820312 58.523438 139.34375 58.6875 C 139.429688 62.292969 139.457031 65.902344 139.429688 69.511719 C 138.742188 69.511719 138.058594 69.511719 137.371094 69.511719 C 137.261719 65.808594 137.375 62.140625 137.714844 58.515625 Z M 137.714844 58.515625 "/>
</g>
<mask id="mask22">
  <g filter="url(#alpha)">
<rect x="0" y="0" width="249" height="105" style="fill:rgb(0%,0%,0%);fill-opacity:0.996078;stroke:none;"/>
  </g>
</mask>
<clipPath id="clip23">
  <rect x="0" y="0" width="250" height="105"/>
</clipPath>
<g id="surface71" clip-path="url(#clip23)">
<path style=" stroke:none;fill-rule:evenodd;fill:rgb(33.72549%,33.72549%,33.72549%);fill-opacity:1;" d="M 165.515625 58.515625 C 166.042969 58.472656 166.558594 58.53125 167.058594 58.6875 C 167.175781 60.066406 167.292969 61.441406 167.402344 62.8125 C 168.941406 62.984375 170.484375 63.039062 172.035156 62.984375 C 172.003906 61.605469 172.035156 60.230469 172.121094 58.859375 C 172.734375 58.46875 173.390625 58.410156 174.09375 58.6875 C 174.265625 62.292969 174.324219 65.902344 174.265625 69.511719 C 173.570312 69.570312 172.882812 69.511719 172.207031 69.339844 C 172.039062 67.917969 171.984375 66.488281 172.035156 65.046875 C 170.488281 65.015625 168.945312 65.046875 167.402344 65.132812 C 167.234375 66.578125 167.175781 68.039062 167.230469 69.511719 C 166.542969 69.511719 165.855469 69.511719 165.171875 69.511719 C 165.0625 65.808594 165.175781 62.140625 165.515625 58.515625 Z M 165.515625 58.515625 "/>
</g>
<mask id="mask23">
  <g filter="url(#alpha)">
<rect x="0" y="0" width="249" height="105" style="fill:rgb(0%,0%,0%);fill-opacity:0.00784314;stroke:none;"/>
  </g>
</mask>
<clipPath id="clip24">
  <rect x="0" y="0" width="250" height="105"/>
</clipPath>
<g id="surface74" clip-path="url(#clip24)">
<path style=" stroke:none;fill-rule:evenodd;fill:rgb(0%,0%,0%);fill-opacity:1;" d="M 130.847656 61.09375 C 130.734375 61.207031 130.734375 61.207031 130.847656 61.09375 Z M 130.847656 61.09375 "/>
</g>
<mask id="mask24">
  <g filter="url(#alpha)">
<rect x="0" y="0" width="249" height="105" style="fill:rgb(0%,0%,0%);fill-opacity:0.792157;stroke:none;"/>
  </g>
</mask>
<clipPath id="clip25">
  <rect x="0" y="0" width="250" height="105"/>
</clipPath>
<g id="surface77" clip-path="url(#clip25)">
<path style=" stroke:none;fill-rule:evenodd;fill:rgb(34.509804%,34.509804%,34.509804%);fill-opacity:1;" d="M 204.8125 63.671875 C 204.878906 63.492188 204.992188 63.464844 205.15625 63.585938 C 205.054688 63.664062 204.9375 63.691406 204.8125 63.671875 Z M 204.8125 63.671875 "/>
</g>
<mask id="mask25">
  <g filter="url(#alpha)">
<rect x="0" y="0" width="249" height="105" style="fill:rgb(0%,0%,0%);fill-opacity:0.894118;stroke:none;"/>
  </g>
</mask>
<clipPath id="clip26">
  <rect x="0" y="0" width="250" height="105"/>
</clipPath>
<g id="surface80" clip-path="url(#clip26)">
<path style=" stroke:none;fill-rule:evenodd;fill:rgb(32.941176%,32.941176%,32.941176%);fill-opacity:1;" d="M 204.984375 64.015625 C 205.160156 64.082031 205.1875 64.195312 205.070312 64.359375 C 204.988281 64.253906 204.960938 64.140625 204.984375 64.015625 Z M 204.984375 64.015625 "/>
</g>
</defs>
<g id="surface1">
<path style=" stroke:none;fill-rule:evenodd;fill:rgb(6.27451%,35.294118%,17.254902%);fill-opacity:1;" d="M 50.023438 11.257812 C 51.867188 12.84375 53.640625 14.535156 55.34375 16.324219 C 58.203125 16.382812 61.0625 16.441406 63.921875 16.496094 C 65.867188 18.445312 67.8125 20.394531 69.757812 22.339844 C 72.214844 22.425781 74.675781 22.453125 77.136719 22.425781 C 77.109375 24.890625 77.136719 27.351562 77.222656 29.816406 C 79.167969 31.761719 81.113281 33.710938 83.058594 35.660156 C 83.113281 38.523438 83.171875 41.386719 83.230469 44.25 C 84.917969 45.941406 86.605469 47.632812 88.292969 49.320312 C 86.605469 51.011719 84.917969 52.699219 83.230469 54.390625 C 83.171875 57.253906 83.113281 60.117188 83.058594 62.984375 C 81.113281 64.929688 79.167969 66.878906 77.222656 68.824219 C 77.136719 71.289062 77.109375 73.75 77.136719 76.214844 C 74.675781 76.1875 72.214844 76.214844 69.757812 76.300781 C 67.8125 78.25 65.867188 80.195312 63.921875 82.144531 C 61.0625 82.203125 58.203125 82.257812 55.34375 82.316406 C 53.652344 84.035156 51.9375 85.726562 50.195312 87.386719 C 48.453125 85.726562 46.734375 84.035156 45.046875 82.316406 C 42.1875 82.257812 39.328125 82.203125 36.464844 82.144531 C 34.519531 80.195312 32.578125 78.25 30.632812 76.300781 C 28.171875 76.214844 25.714844 76.1875 23.253906 76.214844 C 23.28125 73.75 23.253906 71.289062 23.167969 68.824219 C 21.222656 66.878906 19.277344 64.929688 17.332031 62.984375 C 17.273438 60.117188 17.21875 57.253906 17.160156 54.390625 C 15.472656 52.699219 13.785156 51.011719 12.097656 49.320312 C 13.785156 47.632812 15.472656 45.941406 17.160156 44.25 C 17.21875 41.386719 17.273438 38.523438 17.332031 35.660156 C 19.277344 33.710938 21.222656 31.761719 23.167969 29.816406 C 23.253906 27.351562 23.28125 24.890625 23.253906 22.425781 C 25.714844 22.453125 28.171875 22.425781 30.632812 22.339844 C 32.578125 20.394531 34.519531 18.445312 36.464844 16.496094 C 39.328125 16.441406 42.1875 16.382812 45.046875 16.324219 C 46.738281 14.660156 48.398438 12.96875 50.023438 11.257812 Z M 45.046875 48.546875 C 44.875 49.546875 44.820312 50.578125 44.875 51.640625 C 47.621094 51.640625 50.367188 51.640625 53.113281 51.640625 C 53.777344 52.046875 54.378906 52.5625 54.914062 53.1875 C 55.207031 52.4375 55.636719 51.777344 56.199219 51.210938 C 57.308594 50.503906 58.367188 49.730469 59.375 48.890625 C 59.710938 48.0625 59.910156 47.203125 59.976562 46.3125 C 60.089844 46.945312 60.203125 47.574219 60.320312 48.203125 C 60.734375 49.164062 61.421875 49.882812 62.378906 50.351562 C 62.675781 50.464844 62.960938 50.433594 63.238281 50.265625 C 63.398438 49.066406 63.511719 47.863281 63.578125 46.65625 C 63.609375 45.917969 63.441406 45.230469 63.066406 44.59375 C 63.539062 44.101562 63.824219 43.5 63.921875 42.789062 C 63.828125 41.988281 63.65625 41.214844 63.410156 40.46875 C 63.4375 40.296875 63.464844 40.125 63.496094 39.953125 C 64.09375 39.722656 64.238281 39.324219 63.921875 38.753906 C 64.195312 38.105469 64.339844 37.417969 64.351562 36.691406 C 64.496094 36.085938 64.753906 35.542969 65.125 35.058594 C 65.164062 34.414062 65.109375 33.757812 64.953125 33.082031 C 64.941406 32.777344 65.085938 32.605469 65.382812 32.566406 C 65.640625 32.59375 65.78125 32.738281 65.8125 32.996094 C 65.539062 33.683594 65.425781 34.371094 65.46875 35.058594 C 66.027344 36.558594 66.34375 38.074219 66.410156 39.609375 C 67.070312 40.1875 67.128906 40.816406 66.582031 41.5 C 66.480469 42.070312 66.394531 42.644531 66.324219 43.21875 C 66.648438 43.761719 66.9375 44.335938 67.183594 44.9375 C 66.628906 46.675781 66.457031 48.453125 66.667969 50.265625 C 67.125 50.207031 67.585938 50.152344 68.042969 50.09375 C 68.175781 51.042969 67.976562 51.902344 67.441406 52.671875 C 67.269531 54.734375 67.210938 56.792969 67.269531 58.859375 C 67.699219 59.265625 68.214844 59.496094 68.8125 59.546875 C 69.265625 60.425781 69.351562 61.34375 69.070312 62.296875 C 60.835938 62.496094 52.597656 62.523438 44.359375 62.382812 C 44.28125 62.308594 44.222656 62.222656 44.1875 62.125 C 44.671875 60.8125 45.300781 59.582031 46.074219 58.429688 C 48.191406 58.34375 50.308594 58.3125 52.425781 58.34375 C 52.425781 57.253906 52.425781 56.167969 52.425781 55.078125 C 51.972656 55.15625 51.515625 55.214844 51.050781 55.25 C 48.710938 55.121094 46.363281 55.035156 44.015625 54.992188 C 42.90625 54.382812 42.277344 53.4375 42.128906 52.15625 C 41.050781 53.664062 39.9375 55.15625 38.78125 56.625 C 37.335938 54.476562 35.851562 52.355469 34.320312 50.265625 C 34.265625 53.816406 34.207031 57.367188 34.148438 60.921875 C 33.335938 61.117188 32.503906 61.144531 31.660156 61.007812 C 31.492188 55.664062 31.433594 50.308594 31.488281 44.9375 C 32.464844 44.910156 33.4375 44.9375 34.40625 45.023438 C 35.800781 47.191406 37.285156 49.28125 38.867188 51.296875 C 40.449219 49.28125 41.9375 47.191406 43.332031 45.023438 C 46.59375 44.882812 49.851562 44.910156 53.113281 45.109375 C 52.390625 46.242188 51.644531 47.359375 50.882812 48.460938 C 48.9375 48.546875 46.992188 48.574219 45.046875 48.546875 Z M 45.046875 48.546875 "/>
<path style=" stroke:none;fill-rule:evenodd;fill:rgb(64.705882%,65.098039%,64.705882%);fill-opacity:1;" d="M 94.125 30.675781 C 94.355469 36.945312 94.46875 43.277344 94.46875 49.664062 C 94.410156 55.996094 94.355469 62.324219 94.296875 68.652344 C 94.125 55.996094 94.070312 43.335938 94.125 30.675781 Z M 94.125 30.675781 "/>
<use xlink:href="#surface5" mask="url(#mask0)"/>
<path style=" stroke:none;fill-rule:evenodd;fill:rgb(6.27451%,32.54902%,16.078431%);fill-opacity:1;" d="M 172.894531 33.425781 C 173.636719 33.425781 174.378906 33.425781 175.125 33.425781 C 175.125 34.285156 175.125 35.144531 175.125 36.003906 C 174.378906 36.003906 173.636719 36.003906 172.894531 36.003906 C 172.894531 35.144531 172.894531 34.285156 172.894531 33.425781 Z M 172.894531 33.425781 "/>
<path style=" stroke:none;fill-rule:evenodd;fill:rgb(5.882353%,35.294118%,16.862745%);fill-opacity:1;" d="M 176.324219 33.425781 C 177.011719 33.425781 177.699219 33.425781 178.382812 33.425781 C 178.382812 34.285156 178.382812 35.144531 178.382812 36.003906 C 177.699219 36.003906 177.011719 36.003906 176.324219 36.003906 C 176.324219 35.144531 176.324219 34.285156 176.324219 33.425781 Z M 176.324219 33.425781 "/>
<use xlink:href="#surface8" mask="url(#mask1)"/>
<use xlink:href="#surface11" mask="url(#mask2)"/>
<use xlink:href="#surface14" mask="url(#mask3)"/>
<use xlink:href="#surface17" mask="url(#mask4)"/>
<use xlink:href="#surface20" mask="url(#mask5)"/>
<use xlink:href="#surface23" mask="url(#mask6)"/>
<use xlink:href="#surface26" mask="url(#mask7)"/>
<use xlink:href="#surface29" mask="url(#mask8)"/>
<use xlink:href="#surface32" mask="url(#mask9)"/>
<use xlink:href="#surface35" mask="url(#mask10)"/>
<use xlink:href="#surface38" mask="url(#mask11)"/>
<use xlink:href="#surface41" mask="url(#mask12)"/>
<use xlink:href="#surface44" mask="url(#mask13)"/>
<use xlink:href="#surface47" mask="url(#mask14)"/>
<use xlink:href="#surface50" mask="url(#mask15)"/>
<use xlink:href="#surface53" mask="url(#mask16)"/>
<use xlink:href="#surface56" mask="url(#mask17)"/>
<use xlink:href="#surface59" mask="url(#mask18)"/>
<use xlink:href="#surface62" mask="url(#mask19)"/>
<use xlink:href="#surface65" mask="url(#mask20)"/>
<use xlink:href="#surface68" mask="url(#mask21)"/>
<use xlink:href="#surface71" mask="url(#mask22)"/>
<use xlink:href="#surface74" mask="url(#mask23)"/>
<use xlink:href="#surface77" mask="url(#mask24)"/>
<use xlink:href="#surface80" mask="url(#mask25)"/>
</g>
</svg>
